<svg xmlns="http://www.w3.org/2000/svg" width="18.992" height="31.998"><path fill="#2394BC" d="M9.497 31.997c-.219 0-.438-.045-.645-.139-.57-.258-.938-.828-.938-1.463v-10.804l-5.271 4.797c-.649.592-1.65.539-2.235-.119-.585-.656-.532-1.668.118-2.26l6.604-6.01-6.606-6.01c-.649-.592-.702-1.603-.117-2.26.585-.657 1.586-.709 2.234-.12l5.271 4.797v-10.805c0-.632.369-1.204.938-1.462.57-.257 1.238-.149 1.702.272l7.913 7.199c.335.304.524.737.524 1.19 0 .454-.189.886-.522 1.189l-6.606 6.01 6.605 6.01c.333.303.523.736.523 1.189s-.19.885-.523 1.188l-7.913 7.201c-.294.267-.673.41-1.056.41zm1.488-12.406v7.215l4.059-3.607-4.059-3.608zm0-14.4v7.214l4.059-3.606-4.059-3.608z"/></svg>